<svg width="900" height="560" viewBox="0 0 900 560" fill="none" xmlns="http://www.w3.org/2000/svg"><rect width="900" height="560" fill="#1B1715"/><rect x="565" y="95" width="210" height="170" rx="12" fill="#FFF8EE" stroke="#E1A843" stroke-width="5"/><text x="670" y="186" text-anchor="middle" font-family="Arial" font-size="50" font-weight="900" fill="#D77A20">CRUSH</text><text x="670" y="222" text-anchor="middle" font-family="Arial" font-size="20" font-weight="800" fill="#D77A20">CHOCOLATE</text><g transform="translate(145 295)"><rect x="0" y="74" width="142" height="68" rx="9" fill="#2C130E"/><rect x="152" y="74" width="142" height="68" rx="9" fill="#3B1B12"/><rect x="304" y="74" width="142" height="68" rx="9" fill="#2C130E"/><rect x="78" y="0" width="142" height="68" rx="9" fill="#3B1B12"/><rect x="230" y="0" width="142" height="68" rx="9" fill="#2C130E"/><g fill="#7EAA3B"><rect x="14" y="100" width="114" height="18"/><rect x="166" y="100" width="114" height="18"/><rect x="318" y="100" width="114" height="18"/><rect x="92" y="26" width="114" height="18"/><rect x="244" y="26" width="114" height="18"/></g></g></svg>
