<svg width="720" height="420" viewBox="0 0 720 420" fill="none" xmlns="http://www.w3.org/2000/svg">
  <rect width="720" height="420" fill="#EFEAE0"/>
  <rect x="80" y="52" width="208" height="210" rx="8" fill="#111A22"/>
  <rect x="96" y="68" width="176" height="178" rx="4" stroke="#B9944C" stroke-width="4"/>
  <text x="184" y="156" text-anchor="middle" font-family="Arial" font-weight="700" font-size="28" fill="#D0A650">AL HUDAYF</text>
  <ellipse cx="455" cy="278" rx="188" ry="52" fill="#FAF7EF"/>
  <g fill="#B8793C" stroke="#7A4E25" stroke-width="3">
    <path d="M335 230c20-34 70-34 90 0 9 18 0 44-45 44s-54-26-45-44z"/>
    <path d="M430 230c20-34 70-34 90 0 9 18 0 44-45 44s-54-26-45-44z"/>
    <path d="M382 280c20-34 70-34 90 0 9 18 0 44-45 44s-54-26-45-44z"/>
  </g>
  <g stroke="#8D5A2B" stroke-width="3">
    <path d="M380 230c-10 9-16 22-18 40"/>
    <path d="M475 230c-10 9-16 22-18 40"/>
    <path d="M427 280c-10 9-16 22-18 40"/>
  </g>
</svg>
