<svg width="900" height="560" viewBox="0 0 900 560" fill="none" xmlns="http://www.w3.org/2000/svg"><rect width="900" height="560" fill="#F1ECE2"/><rect x="86" y="74" width="290" height="320" rx="12" fill="#111A22"/><rect x="108" y="98" width="246" height="272" rx="6" stroke="#B9944C" stroke-width="5"/><text x="231" y="250" text-anchor="middle" font-family="Arial" font-size="45" font-weight="800" fill="#D0A650">AL HUDAYF</text><ellipse cx="580" cy="420" rx="245" ry="66" fill="#FAF7EF"/><g fill="#B8793C" stroke="#7A4E25" stroke-width="4"><path d="M455 335c24-42 84-42 108 0 11 23-1 56-54 56s-65-33-54-56z"/><path d="M585 335c24-42 84-42 108 0 11 23-1 56-54 56s-65-33-54-56z"/><path d="M520 392c24-42 84-42 108 0 11 23-1 56-54 56s-65-33-54-56z"/></g></svg>
