<svg width="900" height="560" viewBox="0 0 900 560" fill="none" xmlns="http://www.w3.org/2000/svg"><rect width="900" height="560" fill="#F2EFE7"/><rect x="82" y="80" width="290" height="300" rx="12" fill="#17371D"/><rect x="102" y="102" width="250" height="256" rx="6" stroke="#C99C46" stroke-width="5"/><text x="227" y="243" text-anchor="middle" font-family="Arial" font-size="48" font-weight="800" fill="#D7AE52">ZAITOUNE</text><ellipse cx="550" cy="420" rx="260" ry="60" fill="#FAF6EB"/><g fill="#C87922" stroke="#875018" stroke-width="4"><path d="M380 330c22-60 92-60 114 0v48H380z"/><path d="M486 330c22-60 92-60 114 0v48H486z"/><path d="M592 330c22-60 92-60 114 0v48H592z"/></g><g fill="#367A2C"><rect x="388" y="360" width="96" height="18"/><rect x="494" y="360" width="96" height="18"/><rect x="600" y="360" width="96" height="18"/></g></svg>
