<svg width="720" height="420" viewBox="0 0 720 420" fill="none" xmlns="http://www.w3.org/2000/svg">
  <rect width="720" height="420" fill="#EFEAE0"/>
  <rect x="70" y="55" width="210" height="185" rx="8" fill="#18371D"/>
  <rect x="86" y="72" width="178" height="151" rx="4" stroke="#C69C47" stroke-width="4"/>
  <text x="175" y="158" text-anchor="middle" font-family="Arial" font-weight="700" font-size="30" fill="#D8B158">ZAITOUNE</text>
  <ellipse cx="410" cy="276" rx="230" ry="56" fill="#FAF7EF"/>
  <g fill="#C87922" stroke="#875018" stroke-width="3">
    <path d="M260 210c18-50 78-50 96 0v38h-96z"/>
    <path d="M350 210c18-50 78-50 96 0v38h-96z"/>
    <path d="M440 210c18-50 78-50 96 0v38h-96z"/>
  </g>
  <g fill="#367A2C">
    <rect x="266" y="236" width="84" height="14"/>
    <rect x="356" y="236" width="84" height="14"/>
    <rect x="446" y="236" width="84" height="14"/>
  </g>
</svg>
